<svg width="20" height="20" viewBox="0 0 20 20" fill="none" xmlns="http://www.w3.org/2000/svg">
<path d="M1.66669 5L7.42754 8.26414C9.55135 9.4675 10.4487 9.4675 12.5725 8.26414L18.3334 5" stroke="currentColor" stroke-width="1.5" stroke-linejoin="round"/>
<path d="M1.67983 11.2295C1.7343 13.7842 1.76155 15.0614 2.70415 16.0077C3.64675 16.9538 4.95863 16.9868 7.58238 17.0527C9.19944 17.0933 10.8006 17.0933 12.4177 17.0527C15.0414 16.9868 16.3533 16.9538 17.2959 16.0077C18.2385 15.0614 18.2658 13.7842 18.3202 11.2295C18.3378 10.4081 18.3378 9.59159 18.3202 8.77017C18.2658 6.21555 18.2385 4.93825 17.2959 3.99205C16.3533 3.04586 15.0414 3.0129 12.4177 2.94698C10.8006 2.90635 9.19944 2.90635 7.58237 2.94697C4.95863 3.01289 3.64675 3.04585 2.70415 3.99205C1.76154 4.93824 1.7343 6.21555 1.67982 8.77017C1.6623 9.59159 1.66231 10.4081 1.67983 11.2295Z" stroke="currentColor" stroke-width="1.5" stroke-linejoin="round"/>
</svg>
